<svg width="323" height="350" viewBox="0 0 323 350" fill="none" xmlns="http://www.w3.org/2000/svg">
<path d="M85.12 300H80.42V271.2H85.12V300ZM94.8509 282.3C95.2909 281.847 95.7443 281.44 96.2109 281.08C96.6909 280.707 97.1976 280.387 97.7309 280.12C98.2643 279.853 98.8309 279.647 99.4309 279.5C100.031 279.353 100.684 279.28 101.391 279.28C102.511 279.28 103.491 279.467 104.331 279.84C105.184 280.213 105.898 280.74 106.471 281.42C107.058 282.1 107.498 282.92 107.791 283.88C108.084 284.827 108.231 285.873 108.231 287.02V300H103.951V287.02C103.951 285.647 103.631 284.58 102.991 283.82C102.364 283.06 101.404 282.68 100.111 282.68C99.1509 282.68 98.2576 282.9 97.4309 283.34C96.6176 283.78 95.8509 284.38 95.1309 285.14V300H90.8309V279.6H93.4309C94.0176 279.6 94.3909 279.873 94.5509 280.42L94.8509 282.3ZM130.783 279.6L122.583 300H118.703L110.503 279.6H114.043C114.376 279.6 114.65 279.687 114.863 279.86C115.09 280.02 115.236 280.213 115.303 280.44L119.823 292.32C120.01 292.88 120.176 293.433 120.323 293.98C120.47 294.527 120.596 295.08 120.703 295.64C120.81 295.08 120.936 294.533 121.083 294C121.243 293.453 121.416 292.893 121.603 292.32L126.203 280.44C126.283 280.2 126.43 280 126.643 279.84C126.856 279.68 127.116 279.6 127.423 279.6H130.783ZM146.516 287.5C146.516 286.78 146.409 286.113 146.196 285.5C145.996 284.873 145.696 284.333 145.296 283.88C144.896 283.413 144.396 283.053 143.796 282.8C143.209 282.533 142.529 282.4 141.756 282.4C140.196 282.4 138.969 282.847 138.076 283.74C137.182 284.633 136.616 285.887 136.376 287.5H146.516ZM136.256 290.14C136.309 291.3 136.489 292.307 136.796 293.16C137.102 294 137.509 294.7 138.016 295.26C138.536 295.82 139.149 296.24 139.856 296.52C140.576 296.787 141.376 296.92 142.256 296.92C143.096 296.92 143.822 296.827 144.436 296.64C145.049 296.44 145.582 296.227 146.036 296C146.489 295.76 146.876 295.547 147.196 295.36C147.516 295.16 147.809 295.06 148.076 295.06C148.422 295.06 148.689 295.193 148.876 295.46L150.096 297.04C149.589 297.64 149.016 298.147 148.376 298.56C147.736 298.973 147.056 299.313 146.336 299.58C145.616 299.833 144.876 300.013 144.116 300.12C143.356 300.24 142.616 300.3 141.896 300.3C140.482 300.3 139.169 300.067 137.956 299.6C136.756 299.12 135.709 298.42 134.816 297.5C133.936 296.58 133.242 295.44 132.736 294.08C132.242 292.72 131.996 291.153 131.996 289.38C131.996 287.967 132.216 286.647 132.656 285.42C133.109 284.193 133.749 283.127 134.576 282.22C135.416 281.313 136.429 280.6 137.616 280.08C138.816 279.547 140.169 279.28 141.676 279.28C142.929 279.28 144.089 279.487 145.156 279.9C146.222 280.3 147.142 280.893 147.916 281.68C148.689 282.467 149.289 283.433 149.716 284.58C150.156 285.713 150.376 287.007 150.376 288.46C150.376 289.127 150.302 289.573 150.156 289.8C150.009 290.027 149.742 290.14 149.356 290.14H136.256ZM166.566 283.3C166.459 283.487 166.339 283.62 166.206 283.7C166.072 283.78 165.906 283.82 165.706 283.82C165.479 283.82 165.232 283.753 164.966 283.62C164.699 283.473 164.386 283.313 164.026 283.14C163.666 282.967 163.239 282.813 162.746 282.68C162.266 282.533 161.699 282.46 161.046 282.46C160.512 282.46 160.026 282.527 159.586 282.66C159.159 282.78 158.792 282.96 158.486 283.2C158.192 283.427 157.966 283.7 157.806 284.02C157.646 284.327 157.566 284.66 157.566 285.02C157.566 285.5 157.712 285.9 158.006 286.22C158.299 286.54 158.686 286.82 159.166 287.06C159.646 287.287 160.192 287.493 160.806 287.68C161.419 287.867 162.046 288.067 162.686 288.28C163.326 288.493 163.952 288.74 164.566 289.02C165.179 289.3 165.726 289.647 166.206 290.06C166.686 290.46 167.072 290.953 167.366 291.54C167.659 292.113 167.806 292.813 167.806 293.64C167.806 294.6 167.632 295.487 167.286 296.3C166.939 297.113 166.432 297.82 165.766 298.42C165.099 299.02 164.266 299.487 163.266 299.82C162.279 300.153 161.146 300.32 159.866 300.32C159.159 300.32 158.472 300.253 157.806 300.12C157.152 300 156.526 299.833 155.926 299.62C155.339 299.393 154.786 299.127 154.266 298.82C153.759 298.513 153.306 298.18 152.906 297.82L153.906 296.18C154.026 295.98 154.172 295.827 154.346 295.72C154.532 295.6 154.759 295.54 155.026 295.54C155.306 295.54 155.579 295.633 155.846 295.82C156.126 295.993 156.446 296.187 156.806 296.4C157.179 296.613 157.626 296.813 158.146 297C158.666 297.173 159.312 297.26 160.086 297.26C160.726 297.26 161.279 297.187 161.746 297.04C162.212 296.88 162.599 296.667 162.906 296.4C163.212 296.133 163.439 295.833 163.586 295.5C163.732 295.153 163.806 294.787 163.806 294.4C163.806 293.88 163.659 293.453 163.366 293.12C163.072 292.787 162.679 292.5 162.186 292.26C161.706 292.02 161.152 291.807 160.526 291.62C159.912 291.433 159.286 291.233 158.646 291.02C158.006 290.807 157.372 290.56 156.746 290.28C156.132 290 155.579 289.647 155.086 289.22C154.606 288.78 154.219 288.253 153.926 287.64C153.632 287.013 153.486 286.253 153.486 285.36C153.486 284.547 153.646 283.773 153.966 283.04C154.299 282.307 154.779 281.66 155.406 281.1C156.046 280.54 156.826 280.1 157.746 279.78C158.679 279.447 159.752 279.28 160.966 279.28C162.339 279.28 163.586 279.5 164.706 279.94C165.826 280.38 166.766 280.98 167.526 281.74L166.566 283.3ZM178.387 300.32C176.693 300.32 175.387 299.847 174.467 298.9C173.56 297.94 173.107 296.593 173.107 294.86V282.98H170.867C170.627 282.98 170.42 282.907 170.247 282.76C170.073 282.6 169.987 282.367 169.987 282.06V280.32L173.287 279.84L174.227 273.94C174.293 273.713 174.407 273.533 174.567 273.4C174.727 273.253 174.94 273.18 175.207 273.18H177.407V279.88H183.067V282.98H177.407V294.56C177.407 295.293 177.587 295.853 177.947 296.24C178.307 296.627 178.787 296.82 179.387 296.82C179.72 296.82 180.007 296.78 180.247 296.7C180.487 296.607 180.693 296.513 180.867 296.42C181.04 296.313 181.187 296.22 181.307 296.14C181.44 296.047 181.567 296 181.687 296C181.927 296 182.12 296.133 182.267 296.4L183.547 298.5C182.88 299.087 182.093 299.54 181.187 299.86C180.28 300.167 179.347 300.32 178.387 300.32ZM196.157 279.12C196.357 277.76 196.73 276.567 197.277 275.54C197.837 274.513 198.537 273.66 199.377 272.98C200.217 272.287 201.177 271.767 202.257 271.42C203.35 271.06 204.53 270.88 205.797 270.88C207.077 270.88 208.237 271.067 209.277 271.44C210.33 271.8 211.23 272.307 211.977 272.96C212.737 273.613 213.317 274.393 213.717 275.3C214.13 276.207 214.337 277.2 214.337 278.28C214.337 279.2 214.224 280.013 213.997 280.72C213.784 281.413 213.47 282.027 213.057 282.56C212.657 283.093 212.164 283.54 211.577 283.9C210.99 284.26 210.33 284.56 209.597 284.8C211.384 285.32 212.724 286.153 213.617 287.3C214.51 288.433 214.957 289.86 214.957 291.58C214.957 292.967 214.697 294.2 214.177 295.28C213.657 296.36 212.95 297.273 212.057 298.02C211.177 298.767 210.144 299.34 208.957 299.74C207.784 300.127 206.537 300.32 205.217 300.32C203.737 300.32 202.457 300.147 201.377 299.8C200.297 299.44 199.364 298.933 198.577 298.28C197.804 297.613 197.157 296.813 196.637 295.88C196.117 294.947 195.677 293.9 195.317 292.74L197.177 291.96C197.67 291.747 198.137 291.687 198.577 291.78C199.03 291.873 199.357 292.12 199.557 292.52C199.77 292.947 200.01 293.407 200.277 293.9C200.544 294.38 200.884 294.827 201.297 295.24C201.724 295.64 202.244 295.98 202.857 296.26C203.484 296.527 204.25 296.66 205.157 296.66C206.077 296.66 206.877 296.513 207.557 296.22C208.25 295.913 208.824 295.527 209.277 295.06C209.744 294.58 210.09 294.047 210.317 293.46C210.544 292.873 210.657 292.293 210.657 291.72C210.657 291 210.57 290.34 210.397 289.74C210.224 289.127 209.884 288.607 209.377 288.18C208.884 287.753 208.177 287.42 207.257 287.18C206.35 286.927 205.157 286.8 203.677 286.8V283.7C204.89 283.687 205.91 283.567 206.737 283.34C207.577 283.1 208.244 282.78 208.737 282.38C209.244 281.967 209.604 281.473 209.817 280.9C210.044 280.327 210.157 279.7 210.157 279.02C210.157 278.287 210.044 277.64 209.817 277.08C209.59 276.52 209.27 276.053 208.857 275.68C208.457 275.293 207.977 275.007 207.417 274.82C206.857 274.633 206.237 274.54 205.557 274.54C204.904 274.54 204.297 274.633 203.737 274.82C203.19 275.007 202.697 275.267 202.257 275.6C201.83 275.933 201.47 276.333 201.177 276.8C200.884 277.253 200.67 277.753 200.537 278.3C200.35 278.847 200.097 279.213 199.777 279.4C199.47 279.587 199.017 279.627 198.417 279.52L196.157 279.12ZM228.56 296.76C229.427 296.76 230.22 296.62 230.94 296.34C231.66 296.047 232.273 295.647 232.78 295.14C233.3 294.633 233.7 294.033 233.98 293.34C234.26 292.647 234.4 291.893 234.4 291.08C234.4 290.2 234.26 289.413 233.98 288.72C233.713 288.013 233.327 287.42 232.82 286.94C232.327 286.46 231.727 286.093 231.02 285.84C230.327 285.573 229.56 285.44 228.72 285.44C227.853 285.44 227.067 285.587 226.36 285.88C225.667 286.173 225.073 286.573 224.58 287.08C224.087 287.587 223.707 288.18 223.44 288.86C223.173 289.54 223.04 290.26 223.04 291.02C223.04 291.873 223.16 292.653 223.4 293.36C223.64 294.067 223.993 294.673 224.46 295.18C224.927 295.673 225.5 296.06 226.18 296.34C226.873 296.62 227.667 296.76 228.56 296.76ZM226.98 281.8C226.767 282.067 226.56 282.32 226.36 282.56C226.173 282.8 225.987 283.04 225.8 283.28C226.413 282.933 227.087 282.66 227.82 282.46C228.553 282.26 229.34 282.16 230.18 282.16C231.3 282.16 232.373 282.347 233.4 282.72C234.427 283.08 235.327 283.627 236.1 284.36C236.887 285.08 237.513 285.98 237.98 287.06C238.447 288.127 238.68 289.36 238.68 290.76C238.68 292.093 238.433 293.34 237.94 294.5C237.46 295.66 236.78 296.673 235.9 297.54C235.02 298.393 233.96 299.073 232.72 299.58C231.493 300.073 230.133 300.32 228.64 300.32C227.147 300.32 225.8 300.08 224.6 299.6C223.4 299.12 222.373 298.447 221.52 297.58C220.68 296.7 220.033 295.647 219.58 294.42C219.127 293.193 218.9 291.827 218.9 290.32C218.9 289.013 219.18 287.647 219.74 286.22C220.3 284.793 221.167 283.293 222.34 281.72L229.42 272.22C229.633 271.94 229.94 271.7 230.34 271.5C230.753 271.3 231.213 271.2 231.72 271.2H235.52L226.98 281.8ZM262.303 285.6C262.303 288.12 262.03 290.3 261.483 292.14C260.95 293.98 260.21 295.507 259.263 296.72C258.316 297.933 257.203 298.833 255.923 299.42C254.643 300.007 253.263 300.3 251.783 300.3C250.303 300.3 248.923 300.007 247.643 299.42C246.363 298.833 245.25 297.933 244.303 296.72C243.37 295.507 242.636 293.98 242.103 292.14C241.57 290.3 241.303 288.12 241.303 285.6C241.303 283.08 241.57 280.9 242.103 279.06C242.636 277.207 243.37 275.68 244.303 274.48C245.25 273.267 246.363 272.367 247.643 271.78C248.923 271.18 250.303 270.88 251.783 270.88C253.263 270.88 254.643 271.18 255.923 271.78C257.203 272.367 258.316 273.267 259.263 274.48C260.21 275.68 260.95 277.207 261.483 279.06C262.03 280.9 262.303 283.08 262.303 285.6ZM257.863 285.6C257.863 283.467 257.69 281.693 257.343 280.28C257.01 278.853 256.563 277.713 256.003 276.86C255.443 276.007 254.796 275.4 254.063 275.04C253.33 274.68 252.57 274.5 251.783 274.5C250.983 274.5 250.216 274.68 249.483 275.04C248.763 275.4 248.123 276.007 247.563 276.86C247.003 277.713 246.556 278.853 246.223 280.28C245.89 281.693 245.723 283.467 245.723 285.6C245.723 287.733 245.89 289.513 246.223 290.94C246.556 292.353 247.003 293.487 247.563 294.34C248.123 295.193 248.763 295.8 249.483 296.16C250.216 296.52 250.983 296.7 251.783 296.7C252.57 296.7 253.33 296.52 254.063 296.16C254.796 295.8 255.443 295.193 256.003 294.34C256.563 293.487 257.01 292.353 257.343 290.94C257.69 289.513 257.863 287.733 257.863 285.6Z" fill="#293241"/>
<rect x="73" y="57" width="199" height="197" rx="20" fill="black"/>
<path d="M226.606 102.828C224.552 104.996 221.077 104.879 218.98 102.752C206.92 90.5176 190.579 82.9741 172.505 82.9741C136.92 82.9741 107.79 112.111 105.359 149.019C105.177 151.774 107.433 154.02 110.195 154.02H117.022C119.784 154.02 121.999 151.775 122.241 149.024C124.624 121.925 146.204 100.736 172.505 100.736C186.36 100.736 198.807 106.703 207.886 116.264C209.609 118.078 209.478 120.907 207.757 122.723L202.928 127.82C199.909 131.006 202.168 136.258 206.558 136.258H234.815C237.577 136.258 239.815 134.02 239.815 131.258V101.433C239.815 96.9128 234.294 94.7128 231.186 97.9939L226.606 102.828ZM172.505 207.304C158.65 207.304 146.203 201.337 137.124 191.776C135.401 189.962 135.532 187.133 137.253 185.317L142.082 180.22C145.101 177.034 142.842 171.781 138.452 171.781H110.195C107.433 171.781 105.195 174.02 105.195 176.781V206.607C105.195 211.127 110.716 213.327 113.824 210.046L118.404 205.212C120.458 203.044 123.933 203.161 126.03 205.287C138.094 217.522 154.454 225.066 172.505 225.066C208.091 225.066 237.22 195.929 239.651 159.021C239.833 156.266 237.577 154.02 234.815 154.02H227.988C225.226 154.02 223.011 156.265 222.769 159.016C220.386 186.115 198.806 207.304 172.505 207.304Z" fill="white"/>
<g clip-path="url(#clip0_7_7)">
<path d="M197.462 169.813C197.462 175.387 195.615 180.187 191.922 184.213C188.228 188.238 183.431 190.725 177.529 191.672V201.235C177.529 201.745 177.362 202.164 177.028 202.492C176.693 202.82 176.267 202.984 175.747 202.984H168.23C167.748 202.984 167.33 202.811 166.977 202.465C166.625 202.119 166.448 201.709 166.448 201.235V191.672C163.999 191.344 161.632 190.779 159.349 189.978C157.066 189.176 155.183 188.366 153.698 187.546C152.213 186.726 150.84 185.852 149.578 184.923C148.315 183.994 147.452 183.311 146.988 182.874C146.524 182.437 146.2 182.109 146.014 181.89C145.383 181.125 145.346 180.378 145.903 179.65L151.638 172.272C151.897 171.908 152.324 171.689 152.918 171.616C153.475 171.544 153.921 171.708 154.255 172.108L154.366 172.218C158.56 175.824 163.071 178.101 167.896 179.048C169.269 179.34 170.643 179.486 172.016 179.486C175.023 179.486 177.668 178.702 179.951 177.136C182.234 175.569 183.375 173.347 183.375 170.469C183.375 169.449 183.097 168.483 182.54 167.573C181.983 166.662 181.361 165.897 180.675 165.277C179.988 164.658 178.902 163.975 177.417 163.228C175.932 162.481 174.708 161.898 173.742 161.479C172.777 161.06 171.293 160.468 169.288 159.703C167.84 159.12 166.699 158.665 165.864 158.337C165.029 158.009 163.887 157.527 162.439 156.889C160.992 156.251 159.832 155.687 158.96 155.195C158.087 154.703 157.039 154.056 155.814 153.255C154.589 152.453 153.596 151.679 152.835 150.932C152.074 150.186 151.266 149.293 150.413 148.255C149.559 147.216 148.9 146.16 148.436 145.085C147.972 144.01 147.582 142.799 147.267 141.451C146.951 140.103 146.794 138.682 146.794 137.189C146.794 132.161 148.612 127.753 152.25 123.964C155.888 120.175 160.621 117.734 166.448 116.641V106.805C166.448 106.331 166.625 105.921 166.977 105.575C167.33 105.229 167.748 105.056 168.23 105.056H175.747C176.267 105.056 176.693 105.22 177.028 105.548C177.362 105.876 177.529 106.295 177.529 106.805V116.423C179.644 116.641 181.695 117.06 183.681 117.679C185.667 118.299 187.282 118.909 188.525 119.51C189.769 120.111 190.947 120.794 192.061 121.559C193.175 122.324 193.898 122.853 194.232 123.144C194.567 123.436 194.845 123.691 195.068 123.909C195.699 124.565 195.792 125.257 195.346 125.986L190.836 133.964C190.539 134.511 190.112 134.802 189.555 134.839C189.036 134.948 188.535 134.821 188.052 134.456C187.941 134.347 187.672 134.128 187.245 133.8C186.818 133.473 186.094 132.99 185.073 132.352C184.052 131.715 182.967 131.132 181.816 130.604C180.665 130.075 179.283 129.602 177.668 129.183C176.053 128.764 174.466 128.554 172.907 128.554C169.381 128.554 166.504 129.338 164.277 130.904C162.05 132.471 160.936 134.493 160.936 136.97C160.936 137.917 161.094 138.792 161.409 139.593C161.725 140.395 162.272 141.151 163.052 141.861C163.831 142.571 164.565 143.172 165.251 143.664C165.938 144.156 166.977 144.721 168.369 145.358C169.761 145.996 170.884 146.488 171.738 146.834C172.592 147.18 173.891 147.681 175.636 148.337C177.603 149.065 179.106 149.639 180.146 150.058C181.185 150.477 182.595 151.115 184.377 151.971C186.159 152.827 187.56 153.601 188.581 154.293C189.602 154.985 190.753 155.896 192.033 157.026C193.314 158.155 194.297 159.312 194.984 160.496C195.671 161.68 196.256 163.073 196.738 164.676C197.221 166.279 197.462 167.991 197.462 169.813Z" fill="white"/>
</g>
<defs>
<clipPath id="clip0_7_7">
<rect width="53.4523" height="97.9281" fill="white" transform="translate(144.789 105.056)"/>
</clipPath>
</defs>
</svg>
