<svg width="24" height="24" viewBox="0 0 24 24" fill="none" xmlns="http://www.w3.org/2000/svg">
<g clip-path="url(#clip0_72_37)">
<path d="M22 7H2C1.44772 7 1 7.44772 1 8V22C1 22.5523 1.44772 23 2 23H22C22.5523 23 23 22.5523 23 22V8C23 7.44772 22.5523 7 22 7Z" stroke="black" stroke-width="1.5" stroke-linecap="round" stroke-linejoin="round"/>
<path d="M7 7V3C7 1.67392 7.52678 0.402148 8.46447 -0.535534C9.40215 -1.47322 10.6739 -2 12 -2C13.3261 -2 14.5979 -1.47322 15.5355 -0.535534C16.4732 0.402148 17 1.67392 17 3V7" stroke="black" stroke-width="1.5" stroke-linecap="round" stroke-linejoin="round"/>
<path d="M12 16C13.3807 16 14.5 14.8807 14.5 13.5C14.5 12.1193 13.3807 11 12 11C10.6193 11 9.5 12.1193 9.5 13.5C9.5 14.8807 10.6193 16 12 16Z" stroke="black" stroke-width="1.5" stroke-linecap="round" stroke-linejoin="round"/>
<path d="M12 16V19" stroke="black" stroke-width="1.5" stroke-linecap="round" stroke-linejoin="round"/>
</g>
<defs>
<clipPath id="clip0_72_37">
<rect width="32" height="32" fill="white" transform="translate(-4 -4)"/>
</clipPath>
</defs>
</svg>
